# xmcd
# 
# Track frame offsets:
#   150
#   19252
#   34180
#   50375
#   68295
#   85872
#   104507
#   122675
#   139655
#   160335
#   174210
#   191145
#   203157
#   220702
# 
# Disc length: 3143 seconds
# 
# Revision: 2
# Processed by: cddbd v1.5.1PL2 Copyright (c) Steve Scherf et al.
# Submitted via: Synapstar 1.0 
# 
DISCID=ba0c450e
DTITLE=Various Artist - SD067
DYEAR=1900
DGENRE=Country
TTITLE0=Faith Hill - Breathe
TTITLE1=Alan Jackson - Pop A Top
TTITLE2=Reba McEntire - What Do You Say
TTITLE3=Kenny Chesney - She Thinks My Tractor's Sexy
TTITLE4=Jo Dee Messina - Because You Love Me
TTITLE5=Trace Adkins - Don't Lie
TTITLE6=Brad Paisley - He Didn't Have To Be
TTITLE7=Alabama - Small Stuff
TTITLE8=Tracy Byrd - Put Your Hand In Mine
TTITLE9=Toby Keith - When Love Fades
TTITLE10=Shane McAnally - Are Your Eyes Still Blue
TTITLE11=Merle Haggard and Jewel - That's The Way Love Goes
TTITLE12=Jason Sellers - Matter Of Time, A
TTITLE13=Jerry Kilgore - Love Trip
EXTD=MediaType: Karaoke CD+G Producer: StarDisc
EXTT0=
EXTT1=
EXTT2=
EXTT3=
EXTT4=
EXTT5=
EXTT6=
EXTT7=
EXTT8=
EXTT9=
EXTT10=
EXTT11=
EXTT12=
EXTT13=
PLAYORDER=
